<?xml version="1.0" encoding="UTF-8"?>
<!DOCTYPE svg PUBLIC "-//W3C//DTD SVG 1.1//EN" "http://www.w3.org/Graphics/SVG/1.1/DTD/svg11.dtd">
<!-- Creator: CorelDRAW 2020 (64 Bit) -->
<svg xmlns="http://www.w3.org/2000/svg" xml:space="preserve" width="210mm" height="297mm" version="1.1" style="shape-rendering:geometricPrecision; text-rendering:geometricPrecision; image-rendering:optimizeQuality; fill-rule:evenodd; clip-rule:evenodd"
viewBox="0 0 21000 29700"
 xmlns:xlink="http://www.w3.org/1999/xlink"
 xmlns:xodm="http://www.corel.com/coreldraw/odm/2003">
 <defs>
  <style type="text/css">
   <![CDATA[
    .fil0 {fill:#FEFEFE}
   ]]>
  </style>
 </defs>
 <g id="Camada_x0020_1">
  <metadata id="CorelCorpID_0Corel-Layer"/>
  <g id="_2369620437056">
   <path class="fil0" d="M-26495.88 7143.26l-1.58 778.34c0.11,361.44 -71.25,657.84 335.13,657.84l1031.9 0c39.12,0 54.04,-13.64 87.38,-25.98l2.68 -93.58c-127.54,-44.47 -272.64,-27.97 -438.68,-27.97 -153.38,0 -306.77,0 -460.16,0 -522.21,-0.01 -408.36,94.36 -414.42,-984.41l-3.54 -314.88c-61.09,-20.8 -99.4,-16.6 -138.71,10.64z"/>
   <path class="fil0" d="M-25574.97 7460.31c-0.76,69.32 5.93,53.74 31.05,107.61l136.04 3.38c-13.46,59.75 -254.37,292.03 -308.22,309.75 -161.54,-96.84 -118.54,-291.19 -369,-7.26 -87.47,99.18 -227.57,172.97 -185.77,264.69 76.71,168.33 280.49,-225.26 359.55,-225.97 37.02,12.26 104.47,96.34 144.55,130.51 101.59,86.63 182.46,-69.32 338.04,-210.24 29.48,-26.7 40.05,-41.97 69.52,-70.46 73.26,-70.82 47.23,-54.35 85.25,-62.14l8.56 146.76c67.03,35.66 62.26,39.22 129.93,0.81l10.23 -331.97c-2.83,-65.53 1.04,-69.19 -44.71,-87.7l-323.99 -12.06c-76.67,10.53 -35.64,11.61 -81.03,44.29z"/>
  </g>
 </g>
</svg>
