<?xml version="1.0" encoding="UTF-8"?>
<!DOCTYPE svg PUBLIC "-//W3C//DTD SVG 1.1//EN" "http://www.w3.org/Graphics/SVG/1.1/DTD/svg11.dtd">
<!-- Creator: CorelDRAW 2020 (64 Bit) -->
<svg xmlns="http://www.w3.org/2000/svg" xml:space="preserve" width="210mm" height="297mm" version="1.1" style="shape-rendering:geometricPrecision; text-rendering:geometricPrecision; image-rendering:optimizeQuality; fill-rule:evenodd; clip-rule:evenodd"
viewBox="0 0 21000 29700"
 xmlns:xlink="http://www.w3.org/1999/xlink"
 xmlns:xodm="http://www.corel.com/coreldraw/odm/2003">
 <defs>
  <style type="text/css">
   <![CDATA[
    .fil0 {fill:#FEFEFE}
   ]]>
  </style>
 </defs>
 <g id="Camada_x0020_1">
  <metadata id="CorelCorpID_0Corel-Layer"/>
  <g id="_2369779974912">
   <path class="fil0" d="M-33839.86 7195.49c-7.05,5.12 3.97,-0.92 -12.43,8.64 -7.77,4.53 -7.76,3.67 -15.11,6.83 -36.62,8.13 -114,65.4 -134.92,83.54 -24.34,21.1 -41.03,30.74 -59.4,54.94l-50.87 63.4c-29.4,38.13 -60.36,100.05 -79.13,150.05 -10.54,28.04 -19.33,54.74 -27.69,86.42 -7.42,28.12 -8.76,67.57 -20.15,92.73l0 86.04c18.96,14.89 49.51,44.18 72.62,5.59 11.08,-18.49 8.89,-76.8 12.25,-101.83 8.58,-64.11 29.9,-125.43 53.24,-179 10.66,-32.86 -3.41,2.57 3.68,-10.3 3.47,-6.3 6.19,-9.85 8.55,-13.01 57.67,-107.07 138.53,-182.87 243.93,-243.31l25.1 -11.78c136.27,-73.28 326.42,-72.25 474.79,-16.75 79.79,29.85 133.4,72.74 182.44,112.67 35.43,28.85 99.94,110.6 126.15,165.44l11.77 24.78c74.87,138.6 74.44,363.25 -0.06,502.98l-11.71 25.04c-36.6,58.31 -62.01,100.38 -105.51,144.16 -34.61,34.83 -91.5,76.94 -144.16,105.51l-24.78 11.77c-38.63,20.85 -85.44,34.21 -132.27,44.38 -50.49,10.96 -118.22,6.83 -154.52,25.34 -11.47,42.93 -2.61,49.37 21.65,69.12l60.07 0c24.12,-12.03 67.15,-11.48 95.54,-17.45 145.81,-30.66 284.65,-114.63 375.13,-226.29 19.95,-24.62 83.23,-108.36 90.03,-146.33l15.03 -28.32c13.05,-29.71 24.13,-63.08 32.53,-96.86 8.71,-35.03 9.3,-83.74 21.87,-111.91l0 -99.77c-18.59,-42.72 -6.63,-113.26 -67.58,-240.17 -85.69,-178.42 -222.15,-295.14 -408.11,-355.82 -34.5,-11.26 -99.38,-17.5 -126.85,-30.44l-147.68 0c-28.54,13.81 -74.15,15.4 -108.16,25.39 -36.05,10.59 -62.56,21.94 -95.28,34.58z"/>
   <path class="fil0" d="M-33887.22 7930.05c-1.46,0.9 -3.31,2.15 -4.34,2.76 -1.02,0.59 -3.04,1.98 -4.25,2.66l-17.63 8.57c-34.43,6.19 -133.74,53.8 -169.71,69.73 -27.19,12.04 -53.7,23.4 -84.58,36.16 -39.9,16.48 -40.03,14.77 -71.83,39.73l0 34.17c61.67,51.61 234.87,73.37 262.03,103.02l69.02 201.4c13.05,41.42 10.91,31.66 35.36,60.63l27.96 0c33.36,-32.29 56.4,-103.96 79,-158.69 23.51,-56.92 46.15,-106.27 70.05,-163.7 18.8,-45.15 145.12,-306.4 122.18,-337.69 -43.88,-30.35 -113.18,15.7 -159.29,35.36 -51.44,21.93 -102.15,44.4 -153.97,65.89z"/>
   <path class="fil0" d="M-33949.54 7647.68l-12.56 26.9c-10.66,39.57 -44.87,155.77 2.53,173.95 73.43,28.14 51.39,-91.64 70.49,-135.79l2.08 -14.81c5.82,-30.86 0.64,-3.88 9.99,-15.42 17.71,-59.61 76.58,-119.93 119.48,-149.1 192.73,-131.04 434.83,-41.4 511.98,159.97 77.59,202.52 -63.03,439.36 -296.47,456.82 -40.99,3.07 -88.15,22.54 -52.77,66.74 20.26,25.31 78.39,9.57 111.05,7.99l18.59 -8.66c8.41,-2.67 17.39,-4.15 25.89,-6.08 66.88,-10.92 135.83,-66.5 171.85,-102.52 166.3,-166.3 159.51,-417.17 12.79,-579.69 -232,-256.97 -624.41,-110.52 -694.92,119.7z"/>
   <path class="fil0" d="M-33483.74 8224.93c9.24,-1.18 19.23,-1.39 28.3,-4.43 18.46,-6.19 10.19,-5.17 16.18,-10.31 -8.5,1.93 -17.48,3.41 -25.89,6.08l-18.59 8.66z"/>
   <path class="fil0" d="M-33867.4 7210.96c7.35,-3.16 7.34,-2.3 15.11,-6.83 16.4,-9.56 5.38,-3.52 12.43,-8.64 -21.65,6.05 -13.63,1.54 -27.54,15.47z"/>
   <path class="fil0" d="M-33889.08 7712.74l12.07 -30.23c-9.35,11.54 -4.17,-15.44 -9.99,15.42l-2.08 14.81z"/>
   <path class="fil0" d="M-33913.44 7944.04l17.63 -8.57c1.21,-0.68 3.23,-2.07 4.25,-2.66 1.03,-0.61 2.88,-1.86 4.34,-2.76 -15.34,3.61 -4.19,-1.09 -15.71,4.47 -12.03,5.79 -3.12,1.37 -10.51,9.52z"/>
   <path class="fil0" d="M-32955.63 8098.81c14.73,-14.38 9.85,-5.35 15.03,-28.32l-15.03 28.32z"/>
   <path class="fil0" d="M-33962.1 7674.58l12.56 -26.9c-5.45,5.85 -3.55,1.27 -8.47,10.92 -6.77,13.27 -0.27,-1.76 -4.09,15.98z"/>
   <path class="fil0" d="M-33025.04 7560.58l-11.77 -24.78c4.08,14.73 0.51,4.3 5.73,15.89 0.54,1.19 2.44,5.44 2.87,4.54 0.44,-0.91 2.14,2.88 3.17,4.35z"/>
   <path class="fil0" d="M-33311.26 8350.04l24.78 -11.77c-14.73,4.08 -4.3,0.51 -15.89,5.73 -1.19,0.54 -3.65,4.24 -4.54,2.87 -0.88,-1.36 -2.88,2.14 -4.35,3.17z"/>
   <path class="fil0" d="M-33845.29 7286.22c30.51,-8.3 -1.35,2.77 11.04,-3.36 7.46,-3.68 10.82,-6.19 14.06,-8.42l-25.1 11.78z"/>
   <path class="fil0" d="M-33036.81 8088.6l11.71 -25.04c-2.03,2.98 -4.94,7.15 -8.34,14.06 -6.47,13.12 5.73,-22.01 -3.37,10.98z"/>
   <path class="fil0" d="M-34101.45 7552.84l12.23 -23.31c-2.36,3.16 -5.08,6.71 -8.55,13.01 -7.09,12.87 6.98,-22.56 -3.68,10.3z"/>
  </g>
 </g>
</svg>
